<svg xmlns="http://www.w3.org/2000/svg" viewBox="0 0 32 32" role="img" aria-label="DuoZen">
  <defs>
    <linearGradient id="g" x1="0%" y1="0%" x2="100%" y2="100%">
      <stop offset="0%" stop-color="#82c91e"/>
      <stop offset="100%" stop-color="#099268"/>
    </linearGradient>
    <linearGradient id="p" x1="100%" y1="0%" x2="0%" y2="100%">
      <stop offset="0%" stop-color="#9775fa"/>
      <stop offset="100%" stop-color="#5f3dc4"/>
    </linearGradient>
  </defs>
  <!-- Figuras estilizadas (marca DuoZen): verde ‡ esquerda, roxo ‡ direita, espaÁo negativo em S -->
  <path fill="url(#g)" d="M9 5.5a2.2 2.2 0 1 1 0 4.4 2.2 2.2 0 0 1 0-4.4zm-1.2 7.2c-2.8 1.6-4.3 4.8-3.8 8 .5 3.2 3 5.8 6.2 6.5 2.1.4 4.3-.1 6-1.5-2.5-1.2-4.2-3.7-4.6-6.6-.4-2.6.6-5.1 2.4-6.8-1.8-.9-3.8-1-5.2-.6z"/>
  <path fill="url(#p)" d="M23 5.5a2.2 2.2 0 1 0 0 4.4 2.2 2.2 0 0 0 0-4.4zm1.2 7.2c2.8 1.6 4.3 4.8 3.8 8-.5 3.2-3 5.8-6.2 6.5-2.1.4-4.3-.1-6-1.5 2.5-1.2 4.2-3.7 4.6-6.6.4-2.6-.6-5.1-2.4-6.8 1.8-.9 3.8-1 5.2-.6z"/>
</svg>
